<svg width="28" height="30" viewBox="0 0 28 30" fill="none" xmlns="http://www.w3.org/2000/svg">
<path d="M2 7.5H26M11 13.5V22.5M17 13.5V22.5M3.5 7.5L5 25.5C5 26.2956 5.31607 27.0587 5.87868 27.6213C6.44129 28.1839 7.20435 28.5 8 28.5H20C20.7956 28.5 21.5587 28.1839 22.1213 27.6213C22.6839 27.0587 23 26.2956 23 25.5L24.5 7.5M9.5 7.5V3C9.5 2.60218 9.65804 2.22064 9.93934 1.93934C10.2206 1.65804 10.6022 1.5 11 1.5H17C17.3978 1.5 17.7794 1.65804 18.0607 1.93934C18.342 2.22064 18.5 2.60218 18.5 3V7.5" stroke="white" stroke-width="2.66667" stroke-linecap="round" stroke-linejoin="round"/>
</svg>
