<svg width="30" height="30" viewBox="0 0 30 30" fill="none" xmlns="http://www.w3.org/2000/svg">
<path d="M7.51744 7.00227C7.92884 7.14062 8.3667 7.19229 8.80097 7.15374C9.23524 7.11519 9.65563 6.98733 10.0333 6.77894C10.411 6.57054 10.737 6.28655 10.989 5.94644C11.2409 5.60634 11.4129 5.21818 11.493 4.8086L11.9767 2.32466C13.9658 1.89178 16.0312 1.89178 18.0202 2.32466L18.507 4.8086C18.5871 5.21818 18.7591 5.60634 19.011 5.94644C19.263 6.28655 19.589 6.57054 19.9667 6.77894C20.3444 6.98733 20.7648 7.11519 21.199 7.15374C21.6333 7.19229 22.0712 7.14062 22.4826 7.00227L24.9752 6.16466C26.3628 7.5926 27.3965 9.3003 28 11.1614L25.9895 12.8078C25.6584 13.0789 25.3926 13.4153 25.2104 13.7938C25.0282 14.1724 24.9338 14.5841 24.9338 15.0007C24.9338 15.4174 25.0282 15.8291 25.2104 16.2076C25.3926 16.5861 25.6584 16.9225 25.9895 17.1937L28 18.8386C27.3965 20.6997 26.3628 22.4074 24.9752 23.8353L22.481 22.9977C22.0696 22.8594 21.6318 22.8077 21.1975 22.8463C20.7633 22.8848 20.3429 23.0127 19.9652 23.2211C19.5875 23.4295 19.2615 23.7135 19.0095 24.0536C18.7576 24.3937 18.5856 24.7818 18.5055 25.1914L18.0233 27.6753C16.0342 28.1082 13.9688 28.1082 11.9798 27.6753L11.493 25.1914C11.4129 24.7818 11.2409 24.3937 10.989 24.0536C10.737 23.7135 10.411 23.4295 10.0333 23.2211C9.65563 23.0127 9.23524 22.8848 8.80097 22.8463C8.3667 22.8077 7.92884 22.8594 7.51744 22.9977L5.02477 23.8353C3.63723 22.4074 2.60349 20.6997 2 18.8386L4.01046 17.1922C4.34132 16.9211 4.6069 16.5848 4.78897 16.2064C4.97104 15.828 5.06531 15.4165 5.06531 15C5.06531 14.5835 4.97104 14.172 4.78897 13.7936C4.6069 13.4152 4.34132 13.0789 4.01046 12.8078L2 11.1614C2.60304 9.30043 3.63627 7.59275 5.02326 6.16466L7.51744 7.00227ZM15 10.6675C16.2027 10.6675 17.3562 11.124 18.2066 11.9365C19.0571 12.749 19.5349 13.851 19.5349 15C19.5349 16.149 19.0571 17.251 18.2066 18.0635C17.3562 18.876 16.2027 19.3325 15 19.3325C13.7973 19.3325 12.6438 18.876 11.7934 18.0635C10.9429 17.251 10.4651 16.149 10.4651 15C10.4651 13.851 10.9429 12.749 11.7934 11.9365C12.6438 11.124 13.7973 10.6675 15 10.6675Z" stroke="black" stroke-width="1.5" stroke-linecap="round" stroke-linejoin="round"/>
</svg>
