<svg width="28" height="28" viewBox="0 0 28 28" fill="none" xmlns="http://www.w3.org/2000/svg">
<path d="M4.17484 0.687223L14 10.512L23.7743 0.738129C23.9902 0.508335 24.2502 0.324508 24.5389 0.197671C24.8276 0.0708345 25.1389 0.00359989 25.4542 0C26.1293 0 26.7767 0.268162 27.2541 0.745493C27.7314 1.22282 27.9996 1.87022 27.9996 2.54527C28.0055 2.85733 27.9476 3.1673 27.8294 3.45618C27.7113 3.74505 27.5353 4.00673 27.3123 4.22515L17.4108 13.999L27.3123 23.9001C27.7319 24.3105 27.9779 24.8663 27.9996 25.4527C27.9996 26.1278 27.7314 26.7752 27.2541 27.2525C26.7767 27.7298 26.1293 27.998 25.4542 27.998C25.1298 28.0114 24.8062 27.9573 24.5038 27.839C24.2015 27.7207 23.927 27.5408 23.6979 27.3108L14 17.486L4.20029 27.2853C3.98522 27.5074 3.72829 27.6848 3.44432 27.8071C3.16035 27.9294 2.85497 27.9943 2.54579 27.998C1.87072 27.998 1.22329 27.7298 0.745938 27.2525C0.268587 26.7752 0.00041415 26.1278 0.00041415 25.4527C-0.00552039 25.1407 0.0523791 24.8307 0.17056 24.5418C0.288741 24.2529 0.46471 23.9913 0.687667 23.7728L10.5892 13.999L0.687667 4.09789C0.26815 3.68748 0.0221507 3.13173 0.00041415 2.54527C0.00041415 1.87022 0.268587 1.22282 0.745938 0.745493C1.22329 0.268162 1.87072 0 2.54579 0C3.15668 0.00763582 3.74212 0.254527 4.17484 0.687223Z" fill="white"/>
</svg>
