<svg width="12" height="14" viewBox="0 0 12 14" fill="none" xmlns="http://www.w3.org/2000/svg">
<path d="M2.66675 6.40005C2.66675 4.70325 2.66675 3.85425 3.15508 3.32745C3.64286 2.80005 4.42897 2.80005 6.00008 2.80005H7.66675C9.23786 2.80005 10.024 2.80005 10.5117 3.32745C11.0001 3.85425 11.0001 4.70325 11.0001 6.40005V9.40005C11.0001 11.0968 11.0001 11.9458 10.5117 12.4726C10.024 13 9.23786 13 7.66675 13H6.00008C4.42897 13 3.64286 13 3.15508 12.4726C2.66675 11.9458 2.66675 11.0968 2.66675 9.40005V6.40005Z" stroke="#696969" stroke-width="1.5"/>
<path opacity="0.5" d="M2.66667 11.2C2.22464 11.2 1.80072 11.0104 1.48816 10.6728C1.17559 10.3352 1 9.87739 1 9.4V5.8C1 3.5374 1 2.4058 1.65111 1.7032C2.30222 1.0006 3.34944 1 5.44444 1H7.66667C8.10869 1 8.53262 1.18964 8.84518 1.52721C9.15774 1.86477 9.33333 2.32261 9.33333 2.8" stroke="#696969" stroke-width="1.5"/>
</svg>
