<svg width="19" height="22" viewBox="0 0 19 22" fill="none" xmlns="http://www.w3.org/2000/svg">
<path d="M0.533492 21.1438C0.366233 21.0039 0.231761 20.8289 0.139583 20.6313C0.0474044 20.4336 -0.000227836 20.2182 5.44607e-05 20.0001C0.000176538 19.8286 0.0293399 19.6584 0.0863048 19.4966L2.61756 12.0013C2.64266 11.927 2.69045 11.8624 2.75419 11.8167C2.81793 11.7709 2.89441 11.7463 2.97287 11.7463L9.75005 11.7463C9.85287 11.7466 9.95463 11.7256 10.049 11.6849C10.1434 11.6441 10.2284 11.5844 10.2988 11.5094C10.3691 11.4344 10.4233 11.3457 10.4579 11.2489C10.4925 11.1521 10.5069 11.0492 10.5001 10.9466C10.483 10.7538 10.3938 10.5745 10.2502 10.4446C10.1066 10.3147 9.91927 10.2439 9.72568 10.2463L2.97568 10.2463C2.89722 10.2463 2.82074 10.2217 2.757 10.176C2.69326 10.1302 2.64547 10.0657 2.62037 9.99133L0.089117 2.49601C-0.0119153 2.20846 -0.022955 1.89695 0.0574703 1.60297C0.137896 1.30899 0.305967 1.04648 0.539307 0.8504C0.772646 0.654321 1.06018 0.533977 1.36362 0.505392C1.66706 0.476806 1.97202 0.541336 2.23787 0.690389L17.9879 9.68758C18.2198 9.81807 18.4129 10.0079 18.5473 10.2377C18.6816 10.4674 18.7524 10.7288 18.7524 10.9949C18.7524 11.2611 18.6816 11.5224 18.5473 11.7522C18.4129 11.9819 18.2198 12.1718 17.9879 12.3023L2.24068 21.3032C1.97436 21.4557 1.66743 21.5223 1.36186 21.4938C1.05628 21.4652 0.766976 21.343 0.533492 21.1438Z" fill="#447BBA"/>
</svg>
