<svg width="27" height="31" viewBox="0 0 27 31" fill="none" xmlns="http://www.w3.org/2000/svg">
<path fill-rule="evenodd" clip-rule="evenodd" d="M10.6221 5.7449C9.99986 5.8172 9.21597 5.97875 8.09888 6.20897C6.22627 6.5949 5.28997 6.78786 4.58618 7.19637C3.22787 7.98479 2.31895 9.36561 2.13183 10.925C2.03487 11.7329 2.22783 12.6692 2.61376 14.5418L4.3936 23.1781C4.77953 25.0507 4.97249 25.987 5.381 26.6908C6.16942 28.0491 7.55024 28.958 9.1096 29.1451C9.91755 29.2421 10.8539 29.0491 12.7265 28.6632L12.7265 28.6632C13.8427 28.4332 14.6263 28.2717 15.2262 28.0922L14.821 26.1254C14.4145 26.2606 13.7274 26.4149 12.3228 26.7044C10.2934 27.1226 9.75119 27.2078 9.34789 27.1594C8.41227 27.0471 7.58378 26.5018 7.11073 25.6868C6.90681 25.3355 6.77068 24.8038 6.35244 22.7744L4.57259 14.1381C4.15435 12.1087 4.06918 11.5666 4.11758 11.1633C4.22985 10.2276 4.77521 9.39915 5.59019 8.9261C5.9415 8.72218 6.47317 8.58605 8.50258 8.1678C9.90849 7.87806 10.6006 7.74817 11.0273 7.71179L10.6221 5.7449Z" fill="black"/>
<path d="M11.9115 8.91971C12.3001 6.96839 12.4596 6.23418 12.7617 5.70513C13.3853 4.61313 14.4861 3.87795 15.7337 3.72028C16.3381 3.6439 17.0774 3.77789 19.0287 4.1665C20.9801 4.5551 21.7143 4.71455 22.2433 5.01668C23.3353 5.64027 24.0705 6.74109 24.2282 7.98868C24.3045 8.59311 24.1706 9.33239 23.7819 11.2837L22.0603 19.9286C21.6717 21.88 21.5122 22.6142 21.2101 23.1432C20.5865 24.2352 19.4857 24.9704 18.2381 25.1281C17.6337 25.2045 16.8944 25.0705 14.9431 24.6819C12.9918 24.2932 12.2576 24.1338 11.7285 23.8317C10.6365 23.2081 9.90134 22.1073 9.74367 20.8597C9.66728 20.2552 9.80128 19.516 10.1899 17.5646L11.9115 8.91971Z" fill="#F0F0F0" stroke="black" stroke-width="2"/>
</svg>
