<svg width="26" height="26" viewBox="0 0 26 26" fill="none" xmlns="http://www.w3.org/2000/svg">
<path d="M7.65809 23.0452C9.30224 23.921 11.1371 24.3776 13 24.3744C19.2823 24.3744 24.375 19.2818 24.375 12.9997C24.375 6.71759 19.2823 1.62496 13 1.62496C6.71776 1.62496 1.62501 6.71759 1.62501 12.9997C1.62501 14.9334 2.1071 16.7523 2.95643 18.3447C3.15459 18.7157 3.20119 19.1491 3.08643 19.5537L1.7496 24.252L6.44909 22.9163C6.85359 22.8012 7.28696 22.8474 7.65809 23.0452ZM13 25.9994C10.8703 26.0024 8.77275 25.48 6.89326 24.4784L1.72576 25.9485C1.49379 26.0144 1.24844 26.0171 1.01505 25.9564C0.781656 25.8958 0.5687 25.7739 0.398183 25.6034C0.227667 25.4329 0.105778 25.2199 0.0451109 24.9865C-0.0155559 24.7532 -0.012799 24.5078 0.0530966 24.2758L1.5221 19.1085C0.519784 17.2285 -0.00303587 15.1302 1.32609e-05 12.9997C1.32609e-05 5.82061 5.82076 0 13 0C20.1793 0 26 5.82061 26 12.9997C26 20.1788 20.1793 25.9994 13 25.9994ZM8.12501 10.5622C8.12501 10.3468 8.21061 10.1401 8.36299 9.98774C8.51536 9.83537 8.72202 9.74977 8.93751 9.74977H17.0625C17.278 9.74977 17.4847 9.83537 17.637 9.98774C17.7894 10.1401 17.875 10.3468 17.875 10.5622C17.875 10.7777 17.7894 10.9844 17.637 11.1368C17.4847 11.2891 17.278 11.3747 17.0625 11.3747H8.93751C8.72202 11.3747 8.51536 11.2891 8.36299 11.1368C8.21061 10.9844 8.12501 10.7777 8.12501 10.5622ZM8.12501 15.4371C8.12501 15.2216 8.21061 15.015 8.36299 14.8626C8.51536 14.7103 8.72202 14.6247 8.93751 14.6247H13.8125C14.028 14.6247 14.2347 14.7103 14.387 14.8626C14.5394 15.015 14.625 15.2216 14.625 15.4371C14.625 15.6526 14.5394 15.8593 14.387 16.0116C14.2347 16.164 14.028 16.2496 13.8125 16.2496H8.93751C8.72202 16.2496 8.51536 16.164 8.36299 16.0116C8.21061 15.8593 8.12501 15.6526 8.12501 15.4371Z" fill="black"/>
</svg>
