<svg width="27" height="25" viewBox="0 0 27 25" fill="none" xmlns="http://www.w3.org/2000/svg">
<path d="M19.6364 0C17.0591 0 14.8181 1.25914 13.5 3.36924C12.1819 1.25914 9.94091 0 7.36364 0C5.41138 0.00246326 3.53973 0.843757 2.15927 2.33933C0.778813 3.8349 0.00227366 5.86262 0 7.97768C0 11.8601 2.23364 15.9008 6.63955 19.9854C8.65848 21.8492 10.8393 23.4967 13.1515 24.905C13.2586 24.9674 13.3784 25 13.5 25C13.6216 25 13.7414 24.9674 13.8485 24.905C16.1607 23.4967 18.3415 21.8492 20.3605 19.9854C24.7664 15.9008 27 11.8601 27 7.97768C26.9977 5.86262 26.2212 3.8349 24.8407 2.33933C23.4603 0.843757 21.5886 0.00246326 19.6364 0ZM13.5 23.2828C11.486 22.0237 1.47273 15.3863 1.47273 7.97768C1.47435 6.28557 2.09552 4.66327 3.19993 3.46676C4.30434 2.27026 5.80177 1.59729 7.36364 1.59554C9.85255 1.59554 11.9426 3.03551 12.8189 5.35435C12.8743 5.50067 12.9687 5.62582 13.09 5.71389C13.2113 5.80197 13.354 5.84899 13.5 5.84899C13.646 5.84899 13.7887 5.80197 13.91 5.71389C14.0313 5.62582 14.1257 5.50067 14.1811 5.35435C15.0574 3.03551 17.1475 1.59554 19.6364 1.59554C21.1982 1.59729 22.6957 2.27026 23.8001 3.46676C24.9045 4.66327 25.5256 6.28557 25.5273 7.97768C25.5273 15.3863 15.514 22.0237 13.5 23.2828Z" fill="black"/>
</svg>
