<svg width="26" height="26" viewBox="0 0 26 26" fill="none" xmlns="http://www.w3.org/2000/svg">
<path d="M5.2 22.5333V23.4H6.93333V22.5333H5.2ZM19.0667 22.5333V23.4H20.8V22.5333H19.0667ZM6.93333 22.5333V21.6667H5.2V22.5333H6.93333ZM11.2667 17.3333H14.7333V15.6H11.2667V17.3333ZM19.0667 21.6667V22.5333H20.8V21.6667H19.0667ZM14.7333 17.3333C15.8826 17.3333 16.9848 17.7899 17.7975 18.6025C18.6101 19.4152 19.0667 20.5174 19.0667 21.6667H20.8C20.8 20.0577 20.1608 18.5146 19.0231 17.3769C17.8854 16.2392 16.3423 15.6 14.7333 15.6V17.3333ZM6.93333 21.6667C6.93333 20.5174 7.38988 19.4152 8.20254 18.6025C9.01519 17.7899 10.1174 17.3333 11.2667 17.3333V15.6C9.65769 15.6 8.11461 16.2392 6.97689 17.3769C5.83917 18.5146 5.2 20.0577 5.2 21.6667H6.93333ZM13 5.2C11.8507 5.2 10.7485 5.65655 9.93587 6.4692C9.12321 7.28186 8.66667 8.38406 8.66667 9.53333H10.4C10.4 8.84377 10.6739 8.18245 11.1615 7.69486C11.6491 7.20726 12.3104 6.93333 13 6.93333V5.2ZM17.3333 9.53333C17.3333 8.38406 16.8768 7.28186 16.0641 6.4692C15.2515 5.65655 14.1493 5.2 13 5.2V6.93333C13.6896 6.93333 14.3509 7.20726 14.8385 7.69486C15.3261 8.18245 15.6 8.84377 15.6 9.53333H17.3333ZM13 13.8667C14.1493 13.8667 15.2515 13.4101 16.0641 12.5975C16.8768 11.7848 17.3333 10.6826 17.3333 9.53333H15.6C15.6 10.2229 15.3261 10.8842 14.8385 11.3718C14.3509 11.8594 13.6896 12.1333 13 12.1333V13.8667ZM13 12.1333C12.3104 12.1333 11.6491 11.8594 11.1615 11.3718C10.6739 10.8842 10.4 10.2229 10.4 9.53333H8.66667C8.66667 10.6826 9.12321 11.7848 9.93587 12.5975C10.7485 13.4101 11.8507 13.8667 13 13.8667V12.1333ZM13 24.2667C10.0119 24.2667 7.14617 23.0796 5.03326 20.9667C2.92035 18.8538 1.73333 15.9881 1.73333 13H0C0 16.4478 1.36964 19.7544 3.80761 22.1924C6.24558 24.6304 9.55219 26 13 26V24.2667ZM24.2667 13C24.2667 14.4796 23.9752 15.9446 23.409 17.3116C22.8428 18.6785 22.0129 19.9205 20.9667 20.9667C19.9205 22.0129 18.6785 22.8428 17.3116 23.409C15.9446 23.9752 14.4796 24.2667 13 24.2667V26C16.4478 26 19.7544 24.6304 22.1924 22.1924C24.6304 19.7544 26 16.4478 26 13H24.2667ZM13 1.73333C14.4796 1.73333 15.9446 2.02475 17.3116 2.59096C18.6785 3.15716 19.9205 3.98706 20.9667 5.03326C22.0129 6.07947 22.8428 7.3215 23.409 8.68843C23.9752 10.0554 24.2667 11.5204 24.2667 13H26C26 9.55219 24.6304 6.24558 22.1924 3.80761C19.7544 1.36964 16.4478 0 13 0V1.73333ZM13 0C9.55219 0 6.24558 1.36964 3.80761 3.80761C1.36964 6.24558 0 9.55219 0 13H1.73333C1.73333 10.0119 2.92035 7.14617 5.03326 5.03326C7.14617 2.92035 10.0119 1.73333 13 1.73333V0Z" fill="black"/>
</svg>
