<svg width="29" height="24" viewBox="0 0 29 24" fill="none" xmlns="http://www.w3.org/2000/svg">
<path d="M20.6875 2.625C23.7208 2.625 26.1875 4.8675 26.1875 7.625C26.1875 13.4613 18.5659 18.8013 14.5 21.4038C10.4341 18.8013 2.8125 13.4613 2.8125 7.625C2.8125 4.8675 5.27925 2.625 8.3125 2.625C9.19567 2.62681 10.0654 2.82146 10.8486 3.19256C11.6318 3.56367 12.3054 4.10037 12.8129 4.7575L14.5 6.94125L16.1871 4.75875C16.6944 4.10139 17.368 3.56444 18.1512 3.19312C18.9344 2.82179 19.8042 2.62695 20.6875 2.625ZM20.6875 0.75C19.4729 0.749839 18.2763 1.0161 17.1991 1.52619C16.1219 2.03628 15.196 2.77512 14.5 3.68C13.804 2.77512 12.8781 2.03628 11.8009 1.52619C10.7237 1.0161 9.52706 0.749839 8.3125 0.75C6.3068 0.75 4.38325 1.47433 2.96501 2.76364C1.54676 4.05295 0.75 5.80164 0.75 7.625C0.75 14.7738 9.6875 20.6725 14.5 23.6875C19.3125 20.6725 28.25 14.7738 28.25 7.625C28.25 6.72216 28.0544 5.82817 27.6743 4.99405C27.2943 4.15994 26.7372 3.40204 26.035 2.76364C25.3328 2.12524 24.4991 1.61883 23.5815 1.27333C22.664 0.927827 21.6806 0.75 20.6875 0.75Z" fill="white"/>
</svg>
