<svg width="50" height="50" viewBox="0 0 50 50" fill="none" xmlns="http://www.w3.org/2000/svg">
<path d="M10 43.3333V45H13.3333V43.3333H10ZM36.6667 43.3333V45H40V43.3333H36.6667ZM13.3333 43.3333V41.6667H10V43.3333H13.3333ZM21.6667 33.3333H28.3333V30H21.6667V33.3333ZM36.6667 41.6667V43.3333H40V41.6667H36.6667ZM28.3333 33.3333C30.5435 33.3333 32.6631 34.2113 34.2259 35.7741C35.7887 37.3369 36.6667 39.4565 36.6667 41.6667H40C40 38.5725 38.7708 35.605 36.5829 33.4171C34.395 31.2292 31.4275 30 28.3333 30V33.3333ZM13.3333 41.6667C13.3333 39.4565 14.2113 37.3369 15.7741 35.7741C17.3369 34.2113 19.4565 33.3333 21.6667 33.3333V30C18.5725 30 15.605 31.2292 13.4171 33.4171C11.2292 35.605 10 38.5725 10 41.6667H13.3333ZM25 10C22.7899 10 20.6702 10.878 19.1074 12.4408C17.5446 14.0036 16.6667 16.1232 16.6667 18.3333H20C20 17.0072 20.5268 15.7355 21.4645 14.7978C22.4021 13.8601 23.6739 13.3333 25 13.3333V10ZM33.3333 18.3333C33.3333 16.1232 32.4554 14.0036 30.8926 12.4408C29.3298 10.878 27.2101 10 25 10V13.3333C26.3261 13.3333 27.5979 13.8601 28.5355 14.7978C29.4732 15.7355 30 17.0072 30 18.3333H33.3333ZM25 26.6667C27.2101 26.6667 29.3298 25.7887 30.8926 24.2259C32.4554 22.6631 33.3333 20.5435 33.3333 18.3333H30C30 19.6594 29.4732 20.9312 28.5355 21.8689C27.5979 22.8065 26.3261 23.3333 25 23.3333V26.6667ZM25 23.3333C23.6739 23.3333 22.4021 22.8065 21.4645 21.8689C20.5268 20.9312 20 19.6594 20 18.3333H16.6667C16.6667 20.5435 17.5446 22.6631 19.1074 24.2259C20.6702 25.7887 22.7899 26.6667 25 26.6667V23.3333ZM25 46.6667C19.2536 46.6667 13.7426 44.3839 9.67935 40.3206C5.61606 36.2574 3.33333 30.7464 3.33333 25H0C0 31.6304 2.63392 37.9893 7.32233 42.6777C12.0107 47.3661 18.3696 50 25 50V46.6667ZM46.6667 25C46.6667 27.8453 46.1062 30.6628 45.0174 33.2915C43.9285 35.9202 42.3326 38.3087 40.3206 40.3206C38.3087 42.3326 35.9202 43.9285 33.2915 45.0174C30.6628 46.1062 27.8453 46.6667 25 46.6667V50C31.6304 50 37.9893 47.3661 42.6777 42.6777C47.3661 37.9893 50 31.6304 50 25H46.6667ZM25 3.33333C27.8453 3.33333 30.6628 3.89376 33.2915 4.98261C35.9202 6.07146 38.3087 7.66742 40.3206 9.67935C42.3326 11.6913 43.9285 14.0798 45.0174 16.7085C46.1062 19.3372 46.6667 22.1547 46.6667 25H50C50 18.3696 47.3661 12.0107 42.6777 7.32233C37.9893 2.63392 31.6304 0 25 0V3.33333ZM25 0C18.3696 0 12.0107 2.63392 7.32233 7.32233C2.63392 12.0107 0 18.3696 0 25H3.33333C3.33333 19.2536 5.61606 13.7426 9.67935 9.67935C13.7426 5.61606 19.2536 3.33333 25 3.33333V0Z" fill="black"/>
</svg>
