<svg width="11" height="18" viewBox="0 0 11 18" fill="none" xmlns="http://www.w3.org/2000/svg">
<path fill-rule="evenodd" clip-rule="evenodd" d="M1.05733 9.94272C0.807368 9.69268 0.666947 9.3536 0.666947 9.00005C0.666947 8.6465 0.807368 8.30742 1.05733 8.05738L8.6 0.514717C8.72299 0.38737 8.87012 0.285794 9.03279 0.215915C9.19546 0.146036 9.37042 0.109255 9.54746 0.107716C9.7245 0.106178 9.90007 0.139914 10.0639 0.206955C10.2278 0.273996 10.3767 0.373 10.5019 0.498191C10.627 0.623381 10.7261 0.77225 10.7931 0.936112C10.8601 1.09997 10.8939 1.27555 10.8923 1.45259C10.8908 1.62962 10.854 1.80458 10.7841 1.96726C10.7143 2.12993 10.6127 2.27706 10.4853 2.40005L3.88533 9.00005L10.4853 15.6001C10.7282 15.8515 10.8626 16.1883 10.8596 16.5379C10.8565 16.8875 10.7163 17.2219 10.4691 17.4691C10.2219 17.7164 9.88746 17.8566 9.53786 17.8596C9.18827 17.8627 8.85146 17.7283 8.59999 17.4854L1.05733 9.94272Z" fill="black"/>
</svg>
